<?xml version="1.0" encoding="UTF-8"?>
<svg version="1.1" xmlns="http://www.w3.org/2000/svg" width="276" height="277">
<path d="M0 0 C1.29382383 0.34750347 2.5910196 0.68259784 3.890625 1.0078125 C25.28541235 6.4328138 43.07644032 15.86171311 60 30 C60.84691406 30.65742187 61.69382813 31.31484375 62.56640625 31.9921875 C64.77702358 33.81603551 66.54390228 35.61964883 68.375 37.8125 C70.59364087 40.42800982 72.84581007 42.8124305 75.375 45.125 C96.16808604 65.73201816 105.84001936 100.24924083 106.42163086 128.56201172 C106.47579156 140.93564897 105.76686263 152.92616556 103 165 C102.76651855 166.04293213 102.76651855 166.04293213 102.52832031 167.10693359 C97.847884 187.12257192 87.87319487 208.5753618 73 223 C71.63788822 224.55557871 70.28374907 226.11817305 68.9375 227.6875 C51.20441931 247.41043133 27.40633284 259.55697071 2 266 C1.32485352 266.17934082 0.64970703 266.35868164 -0.04589844 266.54345703 C-19.50357527 271.53934703 -43.62846568 271.01333704 -63 266 C-63.7022168 265.82307617 -64.40443359 265.64615234 -65.12792969 265.46386719 C-74.91087858 262.95863614 -84.01097295 259.65901166 -93 255 C-93.94141846 254.52071045 -93.94141846 254.52071045 -94.90185547 254.03173828 C-104.02832076 249.3426464 -111.88793336 244.04783233 -119.5234375 237.1875 C-121.7867408 234.99957182 -121.7867408 234.99957182 -124 234 C-124 233.34 -124 232.68 -124 232 C-124.56203125 231.773125 -125.1240625 231.54625 -125.703125 231.3125 C-128.64626861 229.63070365 -130.50044732 227.5289089 -132.75 225 C-133.94882813 223.6696875 -133.94882813 223.6696875 -135.171875 222.3125 C-137 220 -137 220 -137 218 C-137.66 218 -138.32 218 -139 218 C-140.64855228 215.8673004 -142.14898773 213.74909553 -143.625 211.5 C-144.0686792 210.82654541 -144.5123584 210.15309082 -144.96948242 209.45922852 C-165.03855832 178.35773462 -172.14910823 140.66098092 -164.97265625 104.24609375 C-159.58908006 79.78895806 -148.66921789 57.81832521 -131 40 C-130.11441406 39.06542969 -129.22882813 38.13085938 -128.31640625 37.16796875 C-109.56206845 17.70592009 -85.79836366 4.78607237 -59.2734375 -0.4921875 C-57.04449613 -0.77685238 -57.04449613 -0.77685238 -56 -2 C-38.02169292 -4.61698189 -17.40867254 -6.05326939 0 0 Z " fill="#FEA11B" transform="translate(168,5)"/>
<path d="M0 0 C48.18 0 96.36 0 146 0 C146 11.22 146 22.44 146 34 C127.19 34 108.38 34 89 34 C89 70.96 89 107.92 89 146 C78.11 146 67.22 146 56 146 C56 109.04 56 72.08 56 34 C37.52 34 19.04 34 0 34 C0 22.78 0 11.56 0 0 Z " fill="#090A07" transform="translate(65,66)"/>
<path d="M0 0 C1.29382383 0.34750347 2.5910196 0.68259784 3.890625 1.0078125 C25.28541235 6.4328138 43.07644032 15.86171311 60 30 C60.84691406 30.65742187 61.69382813 31.31484375 62.56640625 31.9921875 C64.77702358 33.81603551 66.54390228 35.61964883 68.375 37.8125 C70.59364087 40.42800982 72.84581007 42.8124305 75.375 45.125 C96.16808604 65.73201816 105.84001936 100.24924083 106.42163086 128.56201172 C106.47579156 140.93564897 105.76686263 152.92616556 103 165 C102.76651855 166.04293213 102.76651855 166.04293213 102.52832031 167.10693359 C97.847884 187.12257192 87.87319487 208.5753618 73 223 C71.63788822 224.55557871 70.28374907 226.11817305 68.9375 227.6875 C51.20441931 247.41043133 27.40633284 259.55697071 2 266 C1.32485352 266.17934082 0.64970703 266.35868164 -0.04589844 266.54345703 C-19.50357527 271.53934703 -43.62846568 271.01333704 -63 266 C-63.7022168 265.82307617 -64.40443359 265.64615234 -65.12792969 265.46386719 C-74.91087858 262.95863614 -84.01097295 259.65901166 -93 255 C-93.94141846 254.52071045 -93.94141846 254.52071045 -94.90185547 254.03173828 C-104.02832076 249.3426464 -111.88793336 244.04783233 -119.5234375 237.1875 C-121.7867408 234.99957182 -121.7867408 234.99957182 -124 234 C-124 233.34 -124 232.68 -124 232 C-124.56203125 231.773125 -125.1240625 231.54625 -125.703125 231.3125 C-128.64626861 229.63070365 -130.50044732 227.5289089 -132.75 225 C-133.94882813 223.6696875 -133.94882813 223.6696875 -135.171875 222.3125 C-137 220 -137 220 -137 218 C-137.66 218 -138.32 218 -139 218 C-140.64855228 215.8673004 -142.14898773 213.74909553 -143.625 211.5 C-144.0686792 210.82654541 -144.5123584 210.15309082 -144.96948242 209.45922852 C-165.03855832 178.35773462 -172.14910823 140.66098092 -164.97265625 104.24609375 C-159.58908006 79.78895806 -148.66921789 57.81832521 -131 40 C-130.11441406 39.06542969 -129.22882813 38.13085938 -128.31640625 37.16796875 C-114.6635498 22.99991017 -98.67168904 12.45271969 -80.3125 5.375 C-79.67787842 5.12717773 -79.04325684 4.87935547 -78.3894043 4.62402344 C-74.15210632 3.09587295 -70.48103901 2.78141273 -66 3 C-68.49744322 4.66496214 -70.22523539 5.53546097 -72.9921875 6.48046875 C-73.77319824 6.75358887 -74.55420898 7.02670898 -75.35888672 7.30810547 C-76.1892041 7.59830566 -77.01952148 7.88850586 -77.875 8.1875 C-95.44149051 14.52203277 -110.49143795 24.07571831 -124 37 C-124.66257813 37.59941406 -125.32515625 38.19882812 -126.0078125 38.81640625 C-138.9426457 50.93953939 -148.76871278 67.14363006 -154 84 C-154.99 84.495 -154.99 84.495 -156 85 C-158.41018827 91.42315174 -159.50293715 98.30876604 -160.52734375 105.06640625 C-160.81883554 106.87558259 -161.15600322 108.67888299 -161.56640625 110.46484375 C-163.2179186 117.77538443 -163.14758733 124.93335277 -163.01416016 132.38842773 C-162.92996497 137.71005895 -163.2091823 142.73401237 -164 148 C-163.34 148.33 -162.68 148.66 -162 149 C-161.796875 150.984375 -161.796875 150.984375 -161.75 153.75 C-160.47687007 172.18843352 -152.90786921 192.14613159 -142 207 C-141.49082031 207.77214844 -140.98164063 208.54429687 -140.45703125 209.33984375 C-122.57544073 236.22594067 -93.34072002 255.92057355 -61.8125 262.6875 C-60.39420898 263.00557617 -60.39420898 263.00557617 -58.94726562 263.33007812 C-34.54016311 268.72175164 -8.67614503 266.95909244 15 259 C16.0621875 258.65324219 17.124375 258.30648438 18.21875 257.94921875 C47.78629824 247.5072812 73.69097389 223.8866708 87.30273438 195.83422852 C92.63596299 184.53960493 97.35532588 173.4525326 99 161 C99.33 159.88625 99.66 158.7725 100 157.625 C102.28532717 149.34068901 102.19308155 140.84730857 102.1875 132.3125 C102.18741943 131.16507324 102.18733887 130.01764648 102.18725586 128.83544922 C101.9680438 96.23976931 89.48178796 63.86522237 66.49609375 40.44921875 C64.90676181 38.88973342 63.30509095 37.3426536 61.6875 35.8125 C60 34 60 34 60 32 C59.15308594 31.86078125 59.15308594 31.86078125 58.2890625 31.71875 C55.433982 30.82227421 53.68817357 29.38767341 51.375 27.5 C48.34636516 25.00268157 48.34636516 25.00268157 45 23 C45 22.34 45 21.68 45 21 C44.44183594 20.89816406 43.88367188 20.79632812 43.30859375 20.69140625 C40.51825308 19.85572046 38.51257578 18.51691743 36.0625 16.9375 C17.73388374 6.12717536 -3.79124138 0.68033675 -25 0 C-26.07894531 -0.03996094 -27.15789062 -0.07992188 -28.26953125 -0.12109375 C-36.06811736 -0.26988832 -43.56246714 0.4205074 -51.265625 1.48828125 C-55.83401652 2.11428469 -60.40876917 2.58060872 -65 3 C-65 2.34 -65 1.68 -65 1 C-58.78521955 -1.33718239 -52.92022299 -2.66882966 -46.3125 -3.25 C-45.41837402 -3.3322583 -44.52424805 -3.4145166 -43.60302734 -3.49926758 C-29.40457017 -4.62798941 -13.55196598 -4.71223182 0 0 Z " fill="#FBA206" transform="translate(168,5)"/>
<path d="M0 0 C1.29382383 0.34750347 2.5910196 0.68259784 3.890625 1.0078125 C25.28541235 6.4328138 43.07644032 15.86171311 60 30 C60.84691406 30.65742187 61.69382812 31.31484375 62.56640625 31.9921875 C64.77702358 33.81603551 66.54390228 35.61964883 68.375 37.8125 C70.59364087 40.42800982 72.84581007 42.8124305 75.375 45.125 C96.16808604 65.73201816 105.84001936 100.24924083 106.42163086 128.56201172 C106.47579156 140.93564897 105.76686263 152.92616556 103 165 C102.8443457 165.69528809 102.68869141 166.39057617 102.52832031 167.10693359 C97.85006461 187.11324665 87.87853514 208.59008014 73 223 C71.53168662 224.63693594 70.07322209 226.28276248 68.625 227.9375 C64.98823886 232.01286549 61.24404523 235.56864428 57 239 C56.34 238.67 55.68 238.34 55 238 C63.36139507 228.55472038 63.36139507 228.55472038 67.9375 224.25 C84.01472544 208.26866259 96.0497883 183.33731719 99 161 C99.33 159.88625 99.66 158.7725 100 157.625 C102.28532717 149.34068901 102.19308155 140.84730857 102.1875 132.3125 C102.18741943 131.16507324 102.18733887 130.01764648 102.18725586 128.83544922 C101.9680438 96.23976931 89.48178796 63.86522237 66.49609375 40.44921875 C64.90676181 38.88973342 63.30509095 37.3426536 61.6875 35.8125 C60 34 60 34 60 32 C59.15308594 31.86078125 59.15308594 31.86078125 58.2890625 31.71875 C55.433982 30.82227421 53.68817357 29.38767341 51.375 27.5 C48.34636516 25.00268157 48.34636516 25.00268157 45 23 C45 22.34 45 21.68 45 21 C44.44183594 20.89816406 43.88367188 20.79632812 43.30859375 20.69140625 C40.51825308 19.85572046 38.51257578 18.51691743 36.0625 16.9375 C17.73388374 6.12717536 -3.79124138 0.68033675 -25 0 C-26.07894531 -0.03996094 -27.15789062 -0.07992188 -28.26953125 -0.12109375 C-36.06811736 -0.26988832 -43.56246714 0.4205074 -51.265625 1.48828125 C-55.83401652 2.11428469 -60.40876917 2.58060872 -65 3 C-65 2.34 -65 1.68 -65 1 C-58.78521955 -1.33718239 -52.92022299 -2.66882966 -46.3125 -3.25 C-45.41837402 -3.3322583 -44.52424805 -3.4145166 -43.60302734 -3.49926758 C-29.40457017 -4.62798941 -13.55196598 -4.71223182 0 0 Z " fill="#FB6D08" transform="translate(168,5)"/>
<path d="M0 0 C48.84 0 97.68 0 148 0 C150.24946003 4.49892007 149.22721927 10.65202437 149.24023438 15.65795898 C149.2499479 17.92533949 149.28097393 20.19181639 149.3125 22.45898438 C149.31902942 23.89843211 149.32428014 25.33788634 149.328125 26.77734375 C149.3374707 28.08952881 149.34681641 29.40171387 149.35644531 30.75366211 C149 34 149 34 147.82029724 35.68734741 C145.29455277 37.50871204 143.6145408 37.32530326 140.51879883 37.2487793 C139.38220825 37.22811401 138.24561768 37.20744873 137.07458496 37.18615723 C135.88079224 37.14921753 134.68699951 37.11227783 133.45703125 37.07421875 C132.35919312 37.05153931 131.26135498 37.02885986 130.13024902 37.00549316 C126.02393602 36.91617318 121.91823715 36.80022532 117.8125 36.6875 C108.634375 36.460625 99.45625 36.23375 90 36 C90 72.63 90 109.26 90 147 C89.67 147 89.34 147 89 147 C89 110.04 89 73.08 89 35 C107.81 35 126.62 35 146 35 C146 23.78 146 12.56 146 1 C97.82 1 49.64 1 0 1 C0 0.67 0 0.34 0 0 Z " fill="#C9831B" transform="translate(65,65)"/>
<path d="M0 0 C-2.49744322 1.66496214 -4.22523539 2.53546097 -6.9921875 3.48046875 C-7.77319824 3.75358887 -8.55420898 4.02670898 -9.35888672 4.30810547 C-10.1892041 4.59830566 -11.01952148 4.88850586 -11.875 5.1875 C-29.44149051 11.52203277 -44.49143795 21.07571831 -58 34 C-58.66257812 34.59941406 -59.32515625 35.19882812 -60.0078125 35.81640625 C-67.33772857 42.68634783 -73.52403966 51.20673276 -78.6875 59.8125 C-80.16309494 62.27182491 -81.90783977 64.05212668 -84 66 C-84.66 65.67 -85.32 65.34 -86 65 C-79.89823456 54.57008424 -73.50540665 45.57718223 -65 37 C-64.11441406 36.06542969 -63.22882812 35.13085938 -62.31640625 34.16796875 C-48.6635498 19.99991017 -32.67168904 9.45271969 -14.3125 2.375 C-13.67787842 2.12717773 -13.04325684 1.87935547 -12.3894043 1.62402344 C-8.15210632 0.09587295 -4.48103901 -0.21858727 0 0 Z " fill="#FB8F04" transform="translate(102,8)"/>
<path d="M0 0 C0.33 0 0.66 0 1 0 C1.83510669 16.73553813 -9.21461915 33.13643643 -19 46 C-20.63980043 47.69310664 -22.30550623 49.361633 -24 51 C-25.46831338 52.63693594 -26.92677791 54.28276248 -28.375 55.9375 C-32.01176114 60.01286549 -35.75595477 63.56864428 -40 67 C-40.66 66.67 -41.32 66.34 -42 66 C-33.63860493 56.55472038 -33.63860493 56.55472038 -29.0625 52.25 C-14.90575267 38.17768655 -6.09961919 18.73846978 0 0 Z " fill="#FB7904" transform="translate(265,177)"/>
<path d="M0 0 C0.99 0.33 1.98 0.66 3 1 C3.07416067 5.64473982 3.12860615 10.28913499 3.16479492 14.93432617 C3.17988094 16.51446536 3.2003525 18.09456269 3.22631836 19.67456055 C3.26271126 21.94590585 3.27972762 24.21669759 3.29296875 26.48828125 C3.30845261 27.19463211 3.32393646 27.90098297 3.33988953 28.6287384 C3.34057617 30.63012695 3.34057617 30.63012695 3 34 C2.01 34.99 1.02 35.98 0 37 C0 24.79 0 12.58 0 0 Z " fill="#EC9220" transform="translate(211,65)"/>
<path d="M0 0 C0 0.99 0 1.98 0 3 C-8.65708853 4.10630288 -17.30737328 5.20596198 -26 6 C-26 5.34 -26 4.68 -26 4 C-17.21258441 0.83174812 -9.32121315 -0.1687946 0 0 Z " fill="#FD8105" transform="translate(129,2)"/>
<path d="M0 0 C4.45920153 5.94560204 4.14054346 10.83228366 4 18 C3.34 17.67 2.68 17.34 2 17 C1.34 17.66 0.68 18.32 0 19 C0 12.73 0 6.46 0 0 Z " fill="#FDB312" transform="translate(1,127)"/>
<path d="M0 0 C0.87785156 0.09796875 1.75570312 0.1959375 2.66015625 0.296875 C3.53542969 0.38453125 4.41070312 0.4721875 5.3125 0.5625 C7.72265625 1.046875 7.72265625 1.046875 10.72265625 3.046875 C7.19171323 4.24907703 4.59366643 3.84219849 0.97265625 3.109375 C-0.0121875 2.91472656 -0.99703125 2.72007813 -2.01171875 2.51953125 C-2.759375 2.36355469 -3.50703125 2.20757812 -4.27734375 2.046875 C-2.27734375 0.046875 -2.27734375 0.046875 0 0 Z " fill="#FC800A" transform="translate(165.27734375,4.953125)"/>
<path d="M0 0 C0.66 0.66 1.32 1.32 2 2 C1.01 4.97 0.02 7.94 -1 11 C-1.66 11 -2.32 11 -3 11 C-2.69217504 9.35328588 -2.37860766 7.70764424 -2.0625 6.0625 C-1.88847656 5.14597656 -1.71445312 4.22945312 -1.53515625 3.28515625 C-1 1 -1 1 0 0 Z " fill="#FA6102" transform="translate(267,176)"/>
</svg>
